<?xml version="1.0" encoding="utf-8"?>
<!-- Generator: Adobe Illustrator 19.0.0, SVG Export Plug-In . SVG Version: 6.00 Build 0)  -->
<svg version="1.1" id="Capa_1" xmlns="http://www.w3.org/2000/svg" xmlns:xlink="http://www.w3.org/1999/xlink" x="0px" y="0px"
	 viewBox="0 0 100 100" style="enable-background:new 0 0 100 100;" xml:space="preserve">
<style type="text/css">
	.st0{opacity:0;fill:#FFFFFF;}
	.st1{fill:#C4C4C4;}
	.st2{fill:#FFFFFF;}
</style>
<rect id="XMLID_7_" x="1" y="1" class="st0" width="98" height="98"/>
<g id="XMLID_8_">
	<g id="XMLID_14_">
		<path id="XMLID_15_" class="st1" d="M46.1,90v-7c-8.1-1.3-15.6-5-22.5-11.1L32.5,61c5,4.4,9.5,7.1,13.6,8.4V55.1
			c-6.7-1.7-11.7-4.1-14.8-7s-4.7-7.1-4.7-12.6c0-5.5,1.8-10,5.4-13.6c3.6-3.6,8.3-5.7,14.1-6.4v-4.7h10.2v4.9
			c6.4,0.9,12.8,3.6,19.1,8l-7.9,11.3c-4-2.9-7.8-4.8-11.2-5.8v13.8c6.9,1.8,12,4.2,15.3,7.2c3.3,3,4.9,7.3,4.9,12.8
			c0,5.5-1.8,10.1-5.5,13.6c-3.7,3.6-8.6,5.7-14.8,6.4V90H46.1z M46.1,28.9c-2.8,1-4.1,2.7-4.1,5.3c0,2.6,1.4,4.5,4.1,5.9V28.9z
			 M61.1,63.9c0-1.3-0.4-2.5-1.1-3.4c-0.7-0.9-2-1.7-3.8-2.5v11.8C59.5,68.9,61.1,66.9,61.1,63.9z"/>
	</g>
	<g id="XMLID_9_">
		<path id="XMLID_10_" class="st2" d="M45.6,93.4v-7.7c-8.9-1.4-17.2-5.5-24.7-12.1l9.8-11.9c5.5,4.8,10.4,7.8,14.9,9.2V55.1
			c-7.4-1.9-12.8-4.4-16.2-7.6c-3.4-3.2-5.2-7.8-5.2-13.8s2-11,5.9-14.9c3.9-3.9,9.1-6.2,15.5-7V6.6h11.2V12c7,1,14,3.9,21,8.8
			l-8.7,12.4c-4.4-3.2-8.5-5.3-12.3-6.3V42c7.6,2,13.2,4.6,16.8,7.9c3.6,3.3,5.4,8,5.4,14S77,75,73,79c-4,3.9-9.4,6.3-16.2,7.1v7.4
			H45.6z M45.6,26.4c-3,1.1-4.5,3-4.5,5.8c0,2.8,1.5,5,4.5,6.4V26.4z M62.2,64.8c0-1.5-0.4-2.7-1.2-3.7c-0.8-1-2.2-1.9-4.2-2.7v13
			C60.4,70.2,62.2,68.1,62.2,64.8z"/>
	</g>
</g>
</svg>
